<svg id="Foreground" xmlns="http://www.w3.org/2000/svg" viewBox="0 0 2149.75 362.3">
  <defs>
    <style>
      .cls-1 {
        fill: #fcfcfc;
      }

      .cls-1, .cls-2, .cls-6 {
        stroke: #020202;
      }

      .cls-1, .cls-2, .cls-4, .cls-5, .cls-6 {
        stroke-miterlimit: 10;
        stroke-width: 3px;
      }

      .cls-2 {
        fill: none;
      }

      .cls-3 {
        fill: #020202;
      }

      .cls-4 {
        fill: #e9e9e9;
        stroke: #cdcdcd;
      }

      .cls-5 {
        fill: #cdcdcd;
        stroke: #000;
      }

      .cls-6 {
        fill: #fff;
      }
    </style>
  </defs>
  <rect class="cls-1" x="457.18" y="41.91" width="12.62" height="165.45" rx="0.65" ry="0.65" transform="translate(14.06 -54.68) rotate(6.08)"/>
  <rect class="cls-1" x="452.54" y="103.85" width="11.18" height="104.01" rx="3.54" ry="3.54" transform="translate(-24.95 99.62) rotate(-12.86)"/>
  <path class="cls-2" d="M478.78,87.37L474.45,101v0L465,207a0.14,0.14,0,0,0,.11.15l6.28,0.77a0.13,0.13,0,0,0,.13-0.13l9.43-106a0.16,0.16,0,0,0,0,0L479,87.4A0.12,0.12,0,0,0,478.78,87.37Z" transform="translate(-1.75 -6.28)"/>
  <path class="cls-1" d="M596.94,200.27s18.65,22.6,25.12,34.38c4.65,8.46,22.18,63.19,22.18,63.19a2.51,2.51,0,0,0,3.07.81s1.78-1.1,1-3.75c-1.85-6.21-18.06-54.55-22.38-62.28-5.27-9.43-28.16-39.76-28.16-39.76a0.6,0.6,0,0,0-1.08.37Z" transform="translate(-1.75 -6.28)"/>
  <rect class="cls-1" x="1803.09" y="132.75" width="41.02" height="183.01"/>
  <rect class="cls-1" x="1776.27" y="157.99" width="25.24" height="157.77"/>
  <rect class="cls-1" x="1719.47" y="178.5" width="36.29" height="137.26"/>
  <rect class="cls-1" x="1650.05" y="247.13" width="68.63" height="68.63"/>
  <rect class="cls-1" x="1845.69" y="178.5" width="18.93" height="137.26"/>
  <rect class="cls-1" x="1755.76" y="197.44" width="18.93" height="118.33"/>
  <rect class="cls-1" x="437.44" y="128.36" width="44.18" height="74.15" rx="6" ry="6"/>
  <path class="cls-1" d="M372.45,148.08h31.18a7,7,0,0,1,7,7V196.9a6,6,0,0,1-6,6H372.45a6,6,0,0,1-6-6V154.08A6,6,0,0,1,372.45,148.08Z"/>
  <rect class="cls-1" x="336.47" y="203.06" width="190.9" height="42.2"/>
  <rect class="cls-1" x="327" y="245.26" width="206.68" height="83.62"/>
  <rect class="cls-1" x="1866.2" y="248.71" width="37.87" height="67.05"/>
  <path class="cls-1" d="M1355.79,133.55H1221.16c-2.32,0-5.66,1.77-5.66,4.09v45.91h55.88a21,21,0,0,1,21.12,21.15V316.55h63.29a5.24,5.24,0,0,0,4.71-4.83V137.64C1360.5,135.32,1358.11,133.55,1355.79,133.55Z" transform="translate(-1.75 -6.28)"/>
  <rect class="cls-3" x="1064.24" y="140.76" width="230.35" height="156.19" rx="7.51" ry="7.51"/>
  <rect class="cls-4" x="1074.66" y="154.56" width="209.5" height="128.58" rx="1.23" ry="1.23"/>
  <path class="cls-5" d="M1300.94,310.71H1060.32a2.07,2.07,0,0,1-1.86-1.15l-3-6a2.07,2.07,0,0,1,1.86-3h247.12a2.07,2.07,0,0,1,1.78,3.13l-3.54,6A2.07,2.07,0,0,1,1300.94,310.71Z" transform="translate(-1.75 -6.28)"/>
  <path class="cls-6" d="M668.12,237.29c0-5.38-4.82-8.74-10.77-8.74h-9.72c2.94-22-1.71-17-11.26-17h-37.2c-9.3,0-14.44-4-11.75,17h-9.23c-5.95,0-10.77,3.36-10.77,8.74,0,3.84,2.46,6.65,6,8.24-2.58,5.47-4,14.59-4,21,0,15.8,8.84,29.5,22.16,37.44a11.53,11.53,0,0,0-3.19,7.9,11.12,11.12,0,0,0,10.77,10.74h37.2c5.95,0,10.77-5.42,10.77-10.8a10.42,10.42,0,0,0-3.25-7.49c13.32-8,22.15-22.14,22.15-37.94,0-6.36-1.45-15.18-4-20.64C665.63,244.11,668.12,241.15,668.12,237.29Z" transform="translate(-1.75 -6.28)"/>
  <path class="cls-1" d="M567.19,186.94l-2.87-1.08a2.4,2.4,0,0,1-.11-4.45L578,175.47a2.4,2.4,0,0,0,1-.86l6-8.9a2.4,2.4,0,0,1,4.15.3l3.44,7.12a2.4,2.4,0,0,0,2.71,1.29l8-1.88a2.4,2.4,0,0,1,2.75,3.29l-0.76,1.76a2.4,2.4,0,0,0,1.36,3.2l1.49,0.56a2.4,2.4,0,0,1,.36,4.32l-11.35,6.56a2.4,2.4,0,0,0-1.2,2L596,200a2.4,2.4,0,0,1-2.57,2.35l-6.94-.49a2.4,2.4,0,0,0-1.82.65l-7.34,6.95a2.4,2.4,0,0,1-4-1.32l-1.1-6.2a2.4,2.4,0,0,0-3.2-1.83l-3,1.1a2.4,2.4,0,0,1-2.78-3.66l5.06-6.94A2.4,2.4,0,0,0,567.19,186.94Z" transform="translate(-1.75 -6.28)"/>
  <path class="cls-2" d="M451,95.06a28.25,28.25,0,0,0-2.89-4.82,27,27,0,0,1-3-5.74l-1.89-5a1.63,1.63,0,0,0-3.11,0l-0.6,5.09A23.5,23.5,0,0,1,437.74,91a22.1,22.1,0,0,0-1.39,4c-1.86,8.82,5.34,9.94,6.52,9.94,4.89,0,8.74-1.82,8.74-7a7.14,7.14,0,0,0-.56-2.78Z" transform="translate(-1.75 -6.28)"/>
  <path class="cls-1" d="M1518,314.17a14.91,14.91,0,0,0-6.85-10.49l-13-8.14a38.84,38.84,0,0,1-14.39-16l-12.93-26.79a45.48,45.48,0,0,1-4.51-18.7l-1.24-52.78a20.56,20.56,0,0,1,1.63-8.52l5.51-13a23.29,23.29,0,0,0,.1-18L1467.88,131a38.74,38.74,0,0,1-2.92-14.75V74.12c-5.07-3.15-20.37-9.25-23-10.94l-0.42,53.42a39.85,39.85,0,0,1-3,14.1l-4,9.74a23.38,23.38,0,0,0,1.09,20.1l7.24,13.27a14,14,0,0,1,1.7,6.36l1.19,50.75a45.48,45.48,0,0,1-6.23,24.07l-15.73,26.83a38.84,38.84,0,0,1-12.07,12.75l-13.2,8.73a14.91,14.91,0,0,0-6.64,11.35L1391,326.7a2.18,2.18,0,0,0,2.17,2.33h124.52a2.18,2.18,0,0,0,2.15-2.49Z" transform="translate(-1.75 -6.28)"/>
  <g>
    <path class="cls-1" d="M1521.44,37.48a15.79,15.79,0,0,0-5.46-2.38L1377,8a10.91,10.91,0,0,0-12.41,7.16l-8.85,25.74-7.12,9.2A3.7,3.7,0,0,0,1351,56l138.65,30.07L1515.34,81a4.41,4.41,0,0,0,3.94-3.7l5.18-32.45A7.58,7.58,0,0,0,1521.44,37.48Z" transform="translate(-1.75 -6.28)"/>
    <rect class="cls-1" x="1515.08" y="53.84" width="12.27" height="6.6" rx="0.86" ry="0.86" transform="translate(46.12 -332.04) rotate(12.42)"/>
    <path class="cls-2" d="M1517.81,35.74s-15.68,6.67-12.77,22.58-15.43,27.74-15.43,27.74" transform="translate(-1.75 -6.28)"/>
  </g>
  <path class="cls-3" d="M1298.41,310.71h-235.7a2.66,2.66,0,0,1-1.82-.58l-2.89-3c-0.67-.69.32-1.5,1.82-1.5h242.06c1.57,0,2.55.87,1.75,1.56l-3.47,3A2.8,2.8,0,0,1,1298.41,310.71Z" transform="translate(-1.75 -6.28)"/>
  <g>
    <path class="cls-5" d="M3.25,262.07" transform="translate(-1.75 -6.28)"/>
    <rect class="cls-5" x="1.5" y="307.18" width="2146.75" height="53.62"/>
  </g>
  </svg>
